<?xml version="1.0" standalone="no"?>
<!DOCTYPE svg PUBLIC "-//W3C//DTD SVG 20010904//EN"
 "http://www.w3.org/TR/2001/REC-SVG-20010904/DTD/svg10.dtd">
<svg version="1.0" xmlns="http://www.w3.org/2000/svg"
 width="1024.000000pt" height="559.000000pt" viewBox="0 0 1024.000000 559.000000"
 preserveAspectRatio="xMidYMid meet">

<g transform="translate(0.000000,559.000000) scale(0.100000,-0.100000)"
fill="#000000" stroke="none">
<path d="M3341 4094 c-12 -16 -46 -54 -74 -84 -29 -31 -79 -85 -111 -120 -63
-69 -159 -169 -376 -395 -75 -77 -150 -158 -169 -179 l-33 -39 -157 157 c-86
86 -159 156 -163 156 -5 0 -58 -68 -230 -300 -31 -41 -173 -230 -316 -420
-143 -190 -259 -347 -257 -349 2 -2 31 18 64 43 65 50 179 119 253 154 41 19
68 51 258 304 117 156 221 292 232 303 19 20 20 19 169 -133 83 -84 153 -152
158 -150 13 5 73 77 266 318 260 324 316 393 331 409 11 12 21 7 65 -28 28
-22 55 -41 58 -41 4 0 15 62 25 138 9 75 21 166 27 202 12 81 9 90 -20 54z"/>
<path d="M544 3789 c-8 -13 -2 -2129 6 -2129 3 0 21 24 40 53 19 28 38 57 43
62 24 32 121 166 175 243 l62 90 0 306 0 306 219 0 219 0 60 83 c34 45 85 116
115 157 l55 75 -334 3 -334 2 0 215 0 215 328 3 c180 1 403 2 496 2 l170 0 72
100 c40 55 92 125 114 155 l42 55 -274 6 c-507 12 -1266 10 -1274 -2z"/>
<path d="M3109 3537 c-31 -40 -97 -123 -148 -185 l-91 -114 0 -303 0 -303 51
-32 c61 -37 54 -32 159 -124 l85 -74 2 161 c6 364 8 1047 3 1047 -3 -1 -30
-33 -61 -73z"/>
<path d="M6255 3400 c-104 -22 -193 -84 -243 -169 -24 -41 -27 -56 -27 -136 0
-108 16 -146 90 -220 44 -45 166 -124 295 -194 104 -56 155 -97 188 -151 29
-47 33 -62 30 -106 -8 -102 -84 -157 -217 -158 -173 -2 -281 85 -331 267 -11
42 -16 47 -41 47 l-29 0 0 -107 c1 -62 6 -120 13 -135 18 -41 112 -106 187
-129 85 -26 248 -36 332 -19 169 33 281 131 301 265 10 64 -8 160 -40 211 -34
55 -129 129 -238 186 -72 37 -245 146 -286 180 -62 51 -64 184 -5 244 48 47
160 66 247 41 109 -32 181 -117 210 -249 11 -55 14 -58 41 -58 l30 0 -4 123
c-3 137 -10 154 -83 202 -68 44 -159 68 -275 71 -58 2 -123 -1 -145 -6z"/>
<path d="M3640 3360 c0 -22 7 -28 45 -38 78 -21 75 1 75 -592 l0 -520 120 0
120 0 0 275 0 275 163 1 c247 2 222 -3 225 47 l3 42 -195 0 -196 0 0 226 0
226 163 -4 c140 -3 167 -6 195 -23 42 -25 68 -68 83 -133 10 -49 13 -52 41
-52 l30 0 -4 113 c-4 127 -14 152 -68 168 -20 5 -203 10 -418 12 l-382 2 0
-25z"/>
<path d="M4700 3383 c-53 -20 -81 -85 -61 -146 34 -101 170 -117 217 -26 49
96 -54 209 -156 172z"/>
<path d="M7022 3380 c-33 -14 -52 -35 -62 -71 -25 -88 52 -169 144 -152 84 16
108 152 36 205 -31 23 -87 31 -118 18z"/>
<path d="M8120 3357 c0 -19 8 -25 42 -33 27 -6 49 -19 62 -37 21 -28 21 -37
21 -553 l0 -524 113 0 112 0 0 343 c0 343 0 344 23 364 63 58 145 67 207 23
62 -44 65 -61 68 -412 l3 -318 110 0 109 0 0 302 c0 333 -7 386 -60 450 -15
18 -54 47 -86 63 -52 25 -70 29 -149 29 -96 1 -136 -10 -192 -51 l-33 -24 0
138 c0 160 -9 202 -51 237 -29 25 -35 26 -165 26 -133 0 -134 0 -134 -23z"/>
<path d="M9236 3256 l-46 -53 0 -82 0 -81 -50 0 -50 0 0 -40 0 -40 49 0 49 0
4 -307 c3 -297 4 -309 25 -343 56 -91 111 -120 221 -120 85 1 130 11 186 44
l45 26 -16 29 -17 28 -30 -18 c-20 -12 -50 -19 -82 -19 -43 0 -54 4 -80 31
l-29 30 -3 310 -4 309 101 0 101 0 0 40 0 40 -100 0 -100 0 0 135 0 135 -64 0
-64 0 -46 -54z"/>
<path d="M2147 3028 c-140 -187 -161 -226 -109 -213 15 4 82 9 150 12 l122 5
0 173 c0 164 -4 205 -19 205 -3 0 -68 -82 -144 -182z"/>
<path d="M2708 3044 c-15 -21 -47 -61 -72 -89 l-45 -50 -59 61 c-100 101 -92
103 -92 -34 l0 -120 36 -7 c54 -10 202 -62 231 -80 14 -9 27 -15 29 -12 2 2 3
87 2 187 l-3 184 -27 -40z"/>
<path d="M5425 3054 c-41 -10 -100 -36 -128 -56 l-28 -20 -29 27 c-35 34 -82
44 -197 45 l-93 0 0 -28 c0 -24 5 -29 43 -39 72 -20 72 -19 75 -420 l3 -353
115 0 116 0 -3 350 -3 350 37 26 c55 37 120 41 177 12 24 -13 53 -37 62 -54
29 -49 39 -179 36 -442 l-3 -242 113 0 112 0 0 295 c0 325 -6 371 -53 442 -49
73 -123 106 -240 109 -51 2 -101 1 -112 -2z"/>
<path d="M7593 3050 c-112 -24 -206 -94 -233 -174 -7 -22 -10 -68 -8 -109 5
-89 34 -140 108 -190 l51 -34 -31 -13 c-17 -7 -42 -26 -56 -43 -34 -41 -27
-81 23 -125 20 -17 34 -33 32 -35 -2 -2 -20 -10 -39 -17 -19 -8 -49 -25 -67
-38 -38 -28 -83 -113 -83 -157 0 -81 59 -173 133 -209 177 -83 493 -69 621 29
115 88 115 295 1 374 -80 55 -239 91 -398 91 -81 0 -107 11 -107 46 0 41 64
64 178 64 171 0 288 52 339 150 20 38 23 57 21 120 -3 66 -7 81 -35 122 -18
25 -46 52 -63 60 -16 7 -30 16 -30 20 0 4 30 8 68 10 65 3 67 4 70 31 l3 27
-103 0 c-57 0 -159 2 -228 5 -69 2 -144 0 -167 -5z m158 -71 c46 -16 68 -37
90 -84 21 -46 24 -161 6 -213 -17 -46 -64 -92 -95 -94 -130 -7 -182 50 -182
198 0 111 32 171 105 193 41 12 38 12 76 0z m18 -674 c61 -16 94 -43 123 -99
25 -49 21 -147 -9 -198 -56 -99 -258 -106 -332 -12 -61 77 -43 238 32 287 55
36 110 43 186 22z"/>
<path d="M4530 3023 c0 -26 5 -31 37 -39 21 -5 45 -21 57 -37 20 -27 21 -41
24 -383 l3 -354 112 0 112 0 -5 377 c-4 282 -8 384 -18 401 -27 47 -57 56
-194 60 l-128 4 0 -29z"/>
<path d="M6850 3015 c0 -19 5 -25 20 -25 41 0 79 -29 89 -68 7 -22 11 -171 11
-374 l0 -338 116 0 117 0 -5 363 c-5 386 -6 390 -58 445 -20 21 -29 22 -155
22 l-135 0 0 -25z"/>
<path d="M2115 2733 c-139 -22 -294 -81 -431 -163 -184 -112 -445 -352 -424
-390 19 -36 209 -213 305 -285 245 -184 533 -275 776 -246 219 27 446 131 649
300 71 59 240 231 240 245 0 5 -57 66 -127 135 -201 199 -397 318 -628 383
-69 19 -292 32 -360 21z m472 -239 c108 -52 194 -106 288 -183 116 -94 129
-107 122 -124 -7 -19 -124 -120 -208 -179 -68 -48 -230 -138 -250 -138 -6 0 5
18 24 40 97 107 127 264 81 421 -8 27 -20 49 -26 49 -6 0 -43 -32 -82 -71 -83
-83 -93 -89 -141 -89 -48 0 -89 25 -109 67 -33 68 -12 115 88 196 84 68 92 69
213 11z m-692 -49 c-54 -80 -66 -115 -72 -228 -7 -121 19 -210 88 -298 16 -20
29 -39 29 -42 0 -9 -156 72 -222 114 -62 41 -143 107 -213 173 l-30 28 75 69
c88 81 213 168 308 215 37 19 70 34 74 34 5 0 -12 -29 -37 -65z"/>
</g>
</svg>
